<svg xmlns="http://www.w3.org/2000/svg" xmlns:xlink="http://www.w3.org/1999/xlink" version="1.1" class="marks" width="346" height="259" viewBox="0 0 346 259"><rect width="346" height="259" fill="#202025"/><g fill="none" stroke-miterlimit="10" transform="translate(39,22)"><g class="mark-group role-frame root" role="graphics-object" aria-roledescription="group mark container"><g transform="translate(0,0)"><path class="background" aria-hidden="true" d="M0.5,0.5h300v200h-300Z" stroke="#ddd"/><g><g class="mark-group role-axis" role="graphics-symbol" aria-roledescription="axis" aria-label="X-axis titled 'Year' for a time scale with values from Saturday, 01 January 2000, 12:00:00 AM to Sunday, 01 January 2023, 12:00:00 AM"><g transform="translate(0.5,200.5)"><path class="background" aria-hidden="true" d="M0,0h0v0h0Z" pointer-events="none"/><g><g class="mark-rule role-axis-tick" pointer-events="none"><line transform="translate(0,0)" x2="0" y2="5" stroke="#888" stroke-width="1" opacity="1"/><line transform="translate(26,0)" x2="0" y2="5" stroke="#888" stroke-width="1" opacity="1"/><line transform="translate(52,0)" x2="0" y2="5" stroke="#888" stroke-width="1" opacity="1"/><line transform="translate(78,0)" x2="0" y2="5" stroke="#888" stroke-width="1" opacity="1"/><line transform="translate(104,0)" x2="0" y2="5" stroke="#888" stroke-width="1" opacity="1"/><line transform="translate(130,0)" x2="0" y2="5" stroke="#888" stroke-width="1" opacity="1"/><line transform="translate(157,0)" x2="0" y2="5" stroke="#888" stroke-width="1" opacity="1"/><line transform="translate(183,0)" x2="0" y2="5" stroke="#888" stroke-width="1" opacity="1"/><line transform="translate(209,0)" x2="0" y2="5" stroke="#888" stroke-width="1" opacity="1"/><line transform="translate(235,0)" x2="0" y2="5" stroke="#888" stroke-width="1" opacity="1"/><line transform="translate(261,0)" x2="0" y2="5" stroke="#888" stroke-width="1" opacity="1"/><line transform="translate(287,0)" x2="0" y2="5" stroke="#888" stroke-width="1" opacity="1"/></g><g class="mark-text role-axis-label" pointer-events="none"><text text-anchor="start" transform="translate(0,15)" font-family="sans-serif" font-size="10px" fill="white" opacity="1">2000</text><text text-anchor="middle" transform="translate(26.103905765654062,15)" font-family="sans-serif" font-size="10px" fill="white" opacity="0">2002</text><text text-anchor="middle" transform="translate(52.17210167389956,15)" font-family="sans-serif" font-size="10px" fill="white" opacity="1">2004</text><text text-anchor="middle" transform="translate(78.27600743955362,15)" font-family="sans-serif" font-size="10px" fill="white" opacity="0">2006</text><text text-anchor="middle" transform="translate(104.34420334779912,15)" font-family="sans-serif" font-size="10px" fill="white" opacity="1">2008</text><text text-anchor="middle" transform="translate(130.4481091134532,15)" font-family="sans-serif" font-size="10px" fill="white" opacity="0">2010</text><text text-anchor="middle" transform="translate(156.51630502169868,15)" font-family="sans-serif" font-size="10px" fill="white" opacity="1">2012</text><text text-anchor="middle" transform="translate(182.62021078735273,15)" font-family="sans-serif" font-size="10px" fill="white" opacity="0">2014</text><text text-anchor="middle" transform="translate(208.68840669559825,15)" font-family="sans-serif" font-size="10px" fill="white" opacity="1">2016</text><text text-anchor="middle" transform="translate(234.79231246125235,15)" font-family="sans-serif" font-size="10px" fill="white" opacity="0">2018</text><text text-anchor="middle" transform="translate(260.8619962802232,15)" font-family="sans-serif" font-size="10px" fill="white" opacity="1">2020</text><text text-anchor="middle" transform="translate(286.96590204587727,15)" font-family="sans-serif" font-size="10px" fill="white" opacity="0">2022</text></g><g class="mark-rule role-axis-domain" pointer-events="none"><line transform="translate(0,0)" x2="300" y2="0" stroke="#888" stroke-width="1" opacity="1"/></g><g class="mark-text role-axis-title" pointer-events="none"><text text-anchor="middle" transform="translate(150,30)" font-family="sans-serif" font-size="11px" font-weight="bold" fill="white" opacity="1">Year</text></g></g><path class="foreground" aria-hidden="true" d="" pointer-events="none" display="none"/></g></g><g class="mark-group role-axis" role="graphics-symbol" aria-roledescription="axis" aria-label="Y-axis titled 'Volume per auction (R$ bi)' for a linear scale with values from 0 to 16"><g transform="translate(0.5,0.5)"><path class="background" aria-hidden="true" d="M0,0h0v0h0Z" pointer-events="none"/><g><g class="mark-rule role-axis-tick" pointer-events="none"><line transform="translate(0,200)" x2="-5" y2="0" stroke="#888" stroke-width="1" opacity="1"/><line transform="translate(0,138)" x2="-5" y2="0" stroke="#888" stroke-width="1" opacity="1"/><line transform="translate(0,75)" x2="-5" y2="0" stroke="#888" stroke-width="1" opacity="1"/><line transform="translate(0,13)" x2="-5" y2="0" stroke="#888" stroke-width="1" opacity="1"/></g><g class="mark-text role-axis-label" pointer-events="none"><text text-anchor="end" transform="translate(-7,203)" font-family="sans-serif" font-size="10px" fill="white" opacity="1">0</text><text text-anchor="end" transform="translate(-7,140.5)" font-family="sans-serif" font-size="10px" fill="white" opacity="1">5</text><text text-anchor="end" transform="translate(-7,78)" font-family="sans-serif" font-size="10px" fill="white" opacity="1">10</text><text text-anchor="end" transform="translate(-7,15.5)" font-family="sans-serif" font-size="10px" fill="white" opacity="1">15</text></g><g class="mark-rule role-axis-domain" pointer-events="none"><line transform="translate(0,200)" x2="0" y2="-200" stroke="#888" stroke-width="1" opacity="1"/></g><g class="mark-text role-axis-title" pointer-events="none"><text text-anchor="middle" transform="translate(-22.43333339691162,100) rotate(-90) translate(0,-2)" font-family="sans-serif" font-size="11px" font-weight="bold" fill="white" opacity="1">Volume per auction (R$ bi)</text></g></g><path class="foreground" aria-hidden="true" d="" pointer-events="none" display="none"/></g></g><g class="mark-line role-mark marks" role="graphics-object" aria-roledescription="line mark container"><path aria-label="year: Jan 01, 2000; total_amount_accepted: 4.16" role="graphics-symbol" aria-roledescription="line mark" d="M0,148L13.07,172.75L26.104,179L39.138,161.375L52.172,170.125L65.242,157.25L78.276,152.125L91.31,152.75L104.344,163.25L117.414,158.25L130.448,139.875L143.482,142.875L156.516,146.5L169.586,140.625L182.62,124.125L195.654,77.75L208.688,91.625L221.758,86.625L234.792,112.5L247.826,85.375L260.862,13.25L273.932,12.875L286.966,73.625L300,46.5" stroke="lightblue" stroke-width="2"/></g><g class="mark-group role-title"><g transform="translate(150,-17)"><path class="background" aria-hidden="true" d="M0,0h0v0h0Z" pointer-events="none"/><g><g class="mark-text role-title-text" role="graphics-symbol" aria-roledescription="title" aria-label="Title text 'Volume per auction (R$ bi)'" pointer-events="none"><text text-anchor="middle" transform="translate(0,10)" font-family="sans-serif" font-size="13px" font-weight="bold" fill="white" opacity="1">Volume per auction (R$ bi)</text></g></g><path class="foreground" aria-hidden="true" d="" pointer-events="none" display="none"/></g></g></g><path class="foreground" aria-hidden="true" d="" display="none"/></g></g></g></svg>