<svg xmlns="http://www.w3.org/2000/svg" xmlns:xlink="http://www.w3.org/1999/xlink" version="1.1" class="marks" width="346" height="264" viewBox="0 0 346 264"><rect width="346" height="264" fill="#202025"/><g fill="none" stroke-miterlimit="10" transform="translate(39,27)"><g class="mark-group role-frame root" role="graphics-object" aria-roledescription="group mark container"><g transform="translate(0,0)"><path class="background" aria-hidden="true" d="M0.5,0.5h300v200h-300Z" stroke="#ddd"/><g><g class="mark-group role-axis" role="graphics-symbol" aria-roledescription="axis" aria-label="X-axis titled 'Year' for a time scale with values from Saturday, 01 January 2000, 12:00:00 AM to Sunday, 01 January 2023, 12:00:00 AM"><g transform="translate(0.5,200.5)"><path class="background" aria-hidden="true" d="M0,0h0v0h0Z" pointer-events="none"/><g><g class="mark-rule role-axis-tick" pointer-events="none"><line transform="translate(0,0)" x2="0" y2="5" stroke="#888" stroke-width="1" opacity="1"/><line transform="translate(26,0)" x2="0" y2="5" stroke="#888" stroke-width="1" opacity="1"/><line transform="translate(52,0)" x2="0" y2="5" stroke="#888" stroke-width="1" opacity="1"/><line transform="translate(78,0)" x2="0" y2="5" stroke="#888" stroke-width="1" opacity="1"/><line transform="translate(104,0)" x2="0" y2="5" stroke="#888" stroke-width="1" opacity="1"/><line transform="translate(130,0)" x2="0" y2="5" stroke="#888" stroke-width="1" opacity="1"/><line transform="translate(157,0)" x2="0" y2="5" stroke="#888" stroke-width="1" opacity="1"/><line transform="translate(183,0)" x2="0" y2="5" stroke="#888" stroke-width="1" opacity="1"/><line transform="translate(209,0)" x2="0" y2="5" stroke="#888" stroke-width="1" opacity="1"/><line transform="translate(235,0)" x2="0" y2="5" stroke="#888" stroke-width="1" opacity="1"/><line transform="translate(261,0)" x2="0" y2="5" stroke="#888" stroke-width="1" opacity="1"/><line transform="translate(287,0)" x2="0" y2="5" stroke="#888" stroke-width="1" opacity="1"/></g><g class="mark-text role-axis-label" pointer-events="none"><text text-anchor="start" transform="translate(0,15)" font-family="sans-serif" font-size="10px" fill="white" opacity="1">2000</text><text text-anchor="middle" transform="translate(26.103905765654062,15)" font-family="sans-serif" font-size="10px" fill="white" opacity="0">2002</text><text text-anchor="middle" transform="translate(52.17210167389956,15)" font-family="sans-serif" font-size="10px" fill="white" opacity="1">2004</text><text text-anchor="middle" transform="translate(78.27600743955362,15)" font-family="sans-serif" font-size="10px" fill="white" opacity="0">2006</text><text text-anchor="middle" transform="translate(104.34420334779912,15)" font-family="sans-serif" font-size="10px" fill="white" opacity="1">2008</text><text text-anchor="middle" transform="translate(130.4481091134532,15)" font-family="sans-serif" font-size="10px" fill="white" opacity="0">2010</text><text text-anchor="middle" transform="translate(156.51630502169868,15)" font-family="sans-serif" font-size="10px" fill="white" opacity="1">2012</text><text text-anchor="middle" transform="translate(182.62021078735273,15)" font-family="sans-serif" font-size="10px" fill="white" opacity="0">2014</text><text text-anchor="middle" transform="translate(208.68840669559825,15)" font-family="sans-serif" font-size="10px" fill="white" opacity="1">2016</text><text text-anchor="middle" transform="translate(234.79231246125235,15)" font-family="sans-serif" font-size="10px" fill="white" opacity="0">2018</text><text text-anchor="middle" transform="translate(260.8619962802232,15)" font-family="sans-serif" font-size="10px" fill="white" opacity="1">2020</text><text text-anchor="middle" transform="translate(286.96590204587727,15)" font-family="sans-serif" font-size="10px" fill="white" opacity="0">2022</text></g><g class="mark-rule role-axis-domain" pointer-events="none"><line transform="translate(0,0)" x2="300" y2="0" stroke="#888" stroke-width="1" opacity="1"/></g><g class="mark-text role-axis-title" pointer-events="none"><text text-anchor="middle" transform="translate(150,30)" font-family="sans-serif" font-size="11px" font-weight="bold" fill="white" opacity="1">Year</text></g></g><path class="foreground" aria-hidden="true" d="" pointer-events="none" display="none"/></g></g><g class="mark-group role-axis" role="graphics-symbol" aria-roledescription="axis" aria-label="Y-axis titled 'Mean volume (R$ bi)' for a linear scale with values from 0 to 80"><g transform="translate(0.5,0.5)"><path class="background" aria-hidden="true" d="M0,0h0v0h0Z" pointer-events="none"/><g><g class="mark-rule role-axis-tick" pointer-events="none"><line transform="translate(0,200)" x2="-5" y2="0" stroke="#888" stroke-width="1" opacity="1"/><line transform="translate(0,150)" x2="-5" y2="0" stroke="#888" stroke-width="1" opacity="1"/><line transform="translate(0,100)" x2="-5" y2="0" stroke="#888" stroke-width="1" opacity="1"/><line transform="translate(0,50)" x2="-5" y2="0" stroke="#888" stroke-width="1" opacity="1"/><line transform="translate(0,0)" x2="-5" y2="0" stroke="#888" stroke-width="1" opacity="1"/></g><g class="mark-text role-axis-label" pointer-events="none"><text text-anchor="end" transform="translate(-7,203)" font-family="sans-serif" font-size="10px" fill="white" opacity="1">0</text><text text-anchor="end" transform="translate(-7,153)" font-family="sans-serif" font-size="10px" fill="white" opacity="1">20</text><text text-anchor="end" transform="translate(-7,103)" font-family="sans-serif" font-size="10px" fill="white" opacity="1">40</text><text text-anchor="end" transform="translate(-7,53)" font-family="sans-serif" font-size="10px" fill="white" opacity="1">60</text><text text-anchor="end" transform="translate(-7,3)" font-family="sans-serif" font-size="10px" fill="white" opacity="1">80</text></g><g class="mark-rule role-axis-domain" pointer-events="none"><line transform="translate(0,200)" x2="0" y2="-200" stroke="#888" stroke-width="1" opacity="1"/></g><g class="mark-text role-axis-title" pointer-events="none"><text text-anchor="middle" transform="translate(-22.43333339691162,100) rotate(-90) translate(0,-2)" font-family="sans-serif" font-size="11px" font-weight="bold" fill="white" opacity="1">Mean volume (R$ bi)</text></g></g><path class="foreground" aria-hidden="true" d="" pointer-events="none" display="none"/></g></g><g class="mark-area role-mark layer_0_marks" role="graphics-object" aria-roledescription="area mark container"><path aria-label="year: Jan 01, 2000; min: 0.37; max: 9.66" role="graphics-symbol" aria-roledescription="area mark" d="M0,199.075L13.07,199.075L13.07,200L26.104,200L26.104,200L39.138,200L39.138,200L52.172,200L52.172,200L65.242,200L65.242,200L78.276,200L78.276,200L91.31,200L91.31,200L104.344,200L104.344,200L117.414,200L117.414,200L130.448,200L130.448,200L143.482,200L143.482,199.975L156.516,199.975L156.516,200L169.586,200L169.586,199.725L182.62,199.725L182.62,199.85L195.654,199.85L195.654,200L208.688,200L208.688,199.625L221.758,199.625L221.758,198.2L234.792,198.2L234.792,200L247.826,200L247.826,196.425L260.862,196.425L260.862,199.65L273.932,199.65L273.932,199.125L286.966,199.125L286.966,199.225L300,199.225L300,199.675L300,128.2L300,129.8L286.966,129.8L286.966,91.35L273.932,91.35L273.932,30.175L260.862,30.175L260.862,143.15L247.826,143.15L247.826,139.7L234.792,139.7L234.792,143.025L221.758,143.025L221.758,122.85L208.688,122.85L208.688,6.7L195.654,6.7L195.654,136.925L182.62,136.925L182.62,157.65L169.586,157.65L169.586,175.475L156.516,175.475L156.516,169.4L143.482,169.4L143.482,160.475L130.448,160.475L130.448,147.975L117.414,147.975L117.414,145.975L104.344,145.975L104.344,168.45L91.31,168.45L91.31,167.475L78.276,167.475L78.276,170.725L65.242,170.725L65.242,178.875L52.172,178.875L52.172,176.25L39.138,176.25L39.138,183.425L26.104,183.425L26.104,183.675L13.07,183.675L13.07,175.85L0,175.85Z" fill="yellow" opacity="0.3"/></g><g class="mark-line role-mark layer_1_marks" role="graphics-object" aria-roledescription="line mark container"><path aria-label="year: Jan 01, 2000; mean: 4.16" role="graphics-symbol" aria-roledescription="line mark" d="M0,189.6L13.07,194.55L26.104,195.8L39.138,192.275L52.172,194.025L65.242,191.45L78.276,190.425L91.31,190.55L104.344,192.65L117.414,191.65L130.448,187.975L143.482,188.575L156.516,189.3L169.586,188.125L182.62,184.825L195.654,175.55L208.688,178.325L221.758,177.325L234.792,182.5L247.826,177.075L260.862,162.65L273.932,162.575L286.966,174.725L300,169.3" stroke="blue" stroke-width="2"/></g><g class="mark-group role-title"><g transform="translate(150,-22)"><path class="background" aria-hidden="true" d="M0,0h0v0h0Z" pointer-events="none"/><g><g class="mark-text role-title-text" role="graphics-symbol" aria-roledescription="title" aria-label="Title text 'Mean volume per auction per year (R$ bi)'" pointer-events="none"><text text-anchor="middle" transform="translate(0,10)" font-family="sans-serif" font-size="13px" font-weight="bold" fill="white" opacity="1">Mean volume per auction per year (R$ bi)</text></g></g><path class="foreground" aria-hidden="true" d="" pointer-events="none" display="none"/></g></g></g><path class="foreground" aria-hidden="true" d="" display="none"/></g></g></g></svg>